# Blender 3.4.1
# www.blender.org
mtllib Capt Win'ar Tutorial Level 2.mtl
o Cube
v 1.000000 1.000000 -13.088121
v 1.000000 -1.000000 -13.088121
v 0.875679 0.875679 13.088121
v 0.875679 -0.875679 13.088121
v -1.000000 1.000000 -13.088121
v -1.000000 -1.000000 -13.088121
v -0.875679 0.875679 13.088121
v -0.875679 -0.875679 13.088121
v -1.000000 -1.000000 13.088121
v -1.000000 1.000000 13.088121
v 1.000000 1.000000 13.088121
v 1.000000 -1.000000 13.088121
v -0.875679 -0.875679 -13.104604
v -0.875679 0.875679 -13.104604
v 0.875679 0.875679 -13.104604
v 0.875679 -0.875679 -13.104604
v 0.875679 -0.875679 -1.860749
v -0.875679 -0.875679 -1.860749
v 0.875679 0.875679 -1.860749
v -0.875679 0.875679 -1.860749
v -0.875679 -0.875679 7.724992
v 0.875679 -0.875679 7.724991
v 0.875679 0.875679 7.724991
v -0.875679 0.875679 7.724991
v 0.875679 -3.671838 7.724991
v 0.875679 -3.671838 -1.860749
v -0.875679 -3.671838 -1.860749
v -0.875679 -3.671838 7.724992
v -1.000000 -3.525174 -13.088121
v -1.000000 -3.525174 13.088121
v 1.000000 -3.525174 -13.088121
v 1.000000 -3.525174 13.088121
vn -0.0000 1.0000 -0.0000
vn -1.0000 -0.0000 -0.0000
vn -0.0000 -0.0000 -1.0000
vn 1.0000 -0.0000 -0.0000
vn 0.0660 -0.0660 -0.9956
vn -0.0000 -0.0000 1.0000
vn -0.0660 0.0660 -0.9956
vn -0.0000 -1.0000 -0.0000
vt 0.625000 0.500000
vt 0.375000 0.500000
vt 0.609460 0.765540
vt 0.390540 0.765540
vt 0.625000 0.250000
vt 0.875000 0.500000
vt 0.375000 0.250000
vt 0.609460 0.984460
vt 0.390540 0.984460
vt 0.375000 1.000000
vt 0.375000 0.000000
vt 0.875000 0.750000
vt 0.625000 0.000000
vt 0.625000 1.000000
vt 0.625000 0.750000
vt 0.375000 0.750000
vt 0.390540 0.984460
vt 0.609460 0.984460
vt 0.609460 0.765540
vt 0.390540 0.765540
vt 0.390540 0.765540
vt 0.390540 0.984460
vt 0.609460 0.765540
vt 0.609460 0.984460
vt 0.390540 0.984460
vt 0.390540 0.765540
vt 0.609460 0.765540
vt 0.609460 0.984460
vt 0.390540 0.765540
vt 0.390540 0.765540
vt 0.390540 0.984460
vt 0.390540 0.984460
vt 0.375000 0.250000
vt 0.375000 1.000000
vt 0.375000 0.000000
vt 0.375000 0.500000
vt 0.375000 0.750000
s 0
usemtl Material
f 1/1/1 5/6/1 10/12/1 11/15/1
f 18/22/1 17/21/1 16/20/1 13/17/1
f 9/11/2 10/13/2 5/5/2 6/7/2
f 6/7/3 2/2/3 31/36/3 29/33/3
f 2/2/4 1/1/4 11/15/4 12/16/4
f 6/7/5 13/17/5 16/20/5 15/19/5 1/1/5 2/2/5
f 8/9/6 7/8/6 10/14/6 9/10/6
f 3/3/6 4/4/6 12/16/6 11/15/6
f 7/8/6 3/3/6 11/15/6 10/14/6
f 4/4/6 8/9/6 9/10/6 12/16/6
f 6/7/7 5/6/7 1/1/7 15/19/7 14/18/7 13/17/7
f 17/21/2 19/23/2 15/19/2 16/20/2
f 19/23/8 20/24/8 14/18/8 15/19/8
f 20/24/4 18/22/4 13/17/4 14/18/4
f 24/28/4 21/25/4 18/22/4 20/24/4
f 23/27/8 24/28/8 20/24/8 19/23/8
f 22/26/2 23/27/2 19/23/2 17/21/2
f 22/26/2 17/21/2 26/30/2 25/29/2
f 8/9/1 4/4/1 22/26/1 21/25/1
f 4/4/2 3/3/2 23/27/2 22/26/2
f 3/3/8 7/8/8 24/28/8 23/27/8
f 7/8/4 8/9/4 21/25/4 24/28/4
f 28/32/1 25/29/1 26/30/1 27/31/1
f 17/21/6 18/22/6 27/31/6 26/30/6
f 21/25/3 22/26/3 25/29/3 28/32/3
f 18/22/4 21/25/4 28/32/4 27/31/4
f 29/33/8 31/36/8 32/37/8 30/34/8
f 12/16/6 9/10/6 30/34/6 32/37/6
f 9/11/2 6/7/2 29/33/2 30/35/2
f 2/2/4 12/16/4 32/37/4 31/36/4
