# Blender 3.4.1
# www.blender.org
mtllib Scooter Tutorial Level.mtl
o Cube
v 0.788095 1.000000 -0.788095
v 1.000000 -1.000000 -1.000000
v 0.788095 1.000000 0.788095
v 1.000000 -1.000000 1.000000
v -0.788095 1.000000 -0.788095
v -1.000000 -1.000000 -1.000000
v -0.788095 1.000000 0.788095
v -1.000000 -1.000000 1.000000
v 1.000000 1.000000 1.000000
v -1.000000 1.000000 1.000000
v 1.000000 1.000000 -1.000000
v -1.000000 1.000000 -1.000000
v 0.788095 1.285789 -0.788095
v 0.788095 1.285789 0.788095
v -0.788095 1.285789 -0.788095
v -0.788095 1.285789 0.788095
vn -1.0000 -0.0000 -0.0000
vn -0.0000 -0.0000 1.0000
vn -0.0000 -1.0000 -0.0000
vn 1.0000 -0.0000 -0.0000
vn -0.0000 -0.0000 -1.0000
vn -0.0000 1.0000 -0.0000
vt 0.651488 0.526488
vt 0.375000 0.500000
vt 0.651488 0.723512
vt 0.375000 0.750000
vt 0.848512 0.526488
vt 0.125000 0.500000
vt 0.375000 0.250000
vt 0.848512 0.723512
vt 0.375000 1.000000
vt 0.375000 0.000000
vt 0.125000 0.750000
vt 0.625000 0.750000
vt 0.625000 1.000000
vt 0.625000 0.000000
vt 0.875000 0.750000
vt 0.625000 0.500000
vt 0.625000 0.250000
vt 0.875000 0.500000
vt 0.651488 0.526488
vt 0.651488 0.723512
vt 0.848512 0.526488
vt 0.848512 0.723512
s 0
usemtl Material
f 5/5/1 7/8/1 16/22/1 15/21/1
f 4/4/2 9/12/2 10/13/2 8/9/2
f 8/10/1 10/14/1 12/17/1 6/7/1
f 6/6/3 2/2/3 4/4/3 8/11/3
f 2/2/4 11/16/4 9/12/4 4/4/4
f 6/7/5 12/17/5 11/16/5 2/2/5
f 3/3/6 7/8/6 10/15/6 9/12/6
f 1/1/6 3/3/6 9/12/6 11/16/6
f 7/8/6 5/5/6 12/18/6 10/15/6
f 5/5/6 1/1/6 11/16/6 12/18/6
f 13/19/6 15/21/6 16/22/6 14/20/6
f 7/8/2 3/3/2 14/20/2 16/22/2
f 1/1/5 5/5/5 15/21/5 13/19/5
f 3/3/4 1/1/4 13/19/4 14/20/4
